<?xml version="1.0" standalone="no"?>
<!DOCTYPE svg PUBLIC "-//W3C//DTD SVG 20010904//EN"
 "http://www.w3.org/TR/2001/REC-SVG-20010904/DTD/svg10.dtd">
<svg version="1.0" xmlns="http://www.w3.org/2000/svg"
 width="42.000000pt" height="42.000000pt" viewBox="0 0 42.000000 42.000000"
 preserveAspectRatio="xMidYMid meet">

<g transform="translate(0.000000,42.000000) scale(0.100000,-0.100000)"
fill="#000000" stroke="none">
<path d="M0 210 l0 -210 210 0 210 0 0 210 0 210 -210 0 -210 0 0 -210z m262
143 c10 -9 18 -29 18 -45 0 -23 -4 -28 -25 -28 -19 0 -25 5 -25 21 0 14 -5 19
-17 17 -31 -6 -25 -32 22 -92 36 -47 45 -66 45 -99 0 -52 -22 -77 -68 -77 -46
0 -72 24 -72 67 0 29 3 33 25 33 20 0 25 -5 25 -25 0 -27 27 -35 36 -11 7 18
-6 42 -51 95 -61 74 -43 161 33 161 20 0 44 -7 54 -17z"/>
</g>
</svg>
